<mxfile host="app.diagrams.net" modified="2023-05-15T16:49:29.207Z" agent="Mozilla/5.0 (Windows NT 10.0; Win64; x64) AppleWebKit/537.36 (KHTML, like Gecko) Chrome/113.0.0.0 Safari/537.36" etag="wNlJU2jv9SgZM9VsTlwv" version="21.3.2" type="device">
  <diagram name="Página-1" id="ItoCFEnh0fc0-_jOK2Rc">
    <mxGraphModel dx="2327" dy="1993" grid="1" gridSize="10" guides="1" tooltips="1" connect="1" arrows="1" fold="1" page="1" pageScale="1" pageWidth="827" pageHeight="1169" background="#ffffff" math="0" shadow="0">
      <root>
        <mxCell id="0" />
        <mxCell id="1" parent="0" />
        <mxCell id="ulnthqZ8hp1moQ3BsTgQ-2" value="Cliente" style="rounded=1;arcSize=10;whiteSpace=wrap;html=1;align=center;labelBackgroundColor=none;fillColor=#09555B;strokeColor=#BAC8D3;fontColor=#EEEEEE;" parent="1" vertex="1">
          <mxGeometry x="50" y="40" width="100" height="40" as="geometry" />
        </mxCell>
        <mxCell id="fjhzI5hMC6Ckn3JjvEL3-2" value="Número do Cliente" style="ellipse;whiteSpace=wrap;html=1;align=center;fontStyle=4;labelBackgroundColor=none;fillColor=#76BCC1;strokeColor=#36393d;" parent="1" vertex="1">
          <mxGeometry x="160" y="-79" width="100" height="40" as="geometry" />
        </mxCell>
        <mxCell id="fjhzI5hMC6Ckn3JjvEL3-5" value="Contacto telefónico" style="ellipse;whiteSpace=wrap;html=1;align=center;labelBackgroundColor=none;fillColor=#76BCC1;strokeColor=#36393d;" parent="1" vertex="1">
          <mxGeometry x="-100" y="1" width="100" height="40" as="geometry" />
        </mxCell>
        <mxCell id="fjhzI5hMC6Ckn3JjvEL3-6" value="Morada" style="ellipse;whiteSpace=wrap;html=1;align=center;labelBackgroundColor=none;fillColor=#76BCC1;strokeColor=#36393d;" parent="1" vertex="1">
          <mxGeometry x="200" y="1" width="100" height="40" as="geometry" />
        </mxCell>
        <mxCell id="fjhzI5hMC6Ckn3JjvEL3-8" value="Nome" style="ellipse;whiteSpace=wrap;html=1;align=center;labelBackgroundColor=none;fillColor=#76BCC1;strokeColor=#36393d;" parent="1" vertex="1">
          <mxGeometry x="50" y="-119" width="100" height="40" as="geometry" />
        </mxCell>
        <mxCell id="fjhzI5hMC6Ckn3JjvEL3-13" value="Encomenda" style="rounded=1;arcSize=10;whiteSpace=wrap;html=1;align=center;labelBackgroundColor=none;fillColor=#09555B;strokeColor=#BAC8D3;fontColor=#EEEEEE;" parent="1" vertex="1">
          <mxGeometry x="-0.03999999999999204" y="620.5" width="100" height="40" as="geometry" />
        </mxCell>
        <mxCell id="fjhzI5hMC6Ckn3JjvEL3-14" value="Número da Encomenda" style="ellipse;whiteSpace=wrap;html=1;align=center;fontStyle=4;labelBackgroundColor=none;fillColor=#76BCC1;strokeColor=#36393d;" parent="1" vertex="1">
          <mxGeometry x="79.96000000000005" y="698.5" width="100" height="40" as="geometry" />
        </mxCell>
        <mxCell id="fjhzI5hMC6Ckn3JjvEL3-26" value="Método de pagamento" style="rounded=1;arcSize=10;whiteSpace=wrap;html=1;align=center;labelBackgroundColor=none;fillColor=#09555B;strokeColor=#BAC8D3;fontColor=#EEEEEE;" parent="1" vertex="1">
          <mxGeometry x="610" y="40" width="100" height="40" as="geometry" />
        </mxCell>
        <mxCell id="fjhzI5hMC6Ckn3JjvEL3-27" value="Token" style="ellipse;whiteSpace=wrap;html=1;align=center;fontStyle=4;labelBackgroundColor=none;fillColor=#76BCC1;strokeColor=#36393d;" parent="1" vertex="1">
          <mxGeometry x="678" y="-82" width="100" height="40" as="geometry" />
        </mxCell>
        <mxCell id="fjhzI5hMC6Ckn3JjvEL3-37" value="Método de pagamento substituto" style="text;strokeColor=none;align=center;fillColor=none;html=1;verticalAlign=middle;whiteSpace=wrap;rounded=0;fontColor=#1A1A1A;" parent="1" vertex="1">
          <mxGeometry x="572" y="87" width="60" height="30" as="geometry" />
        </mxCell>
        <mxCell id="fjhzI5hMC6Ckn3JjvEL3-47" value="&lt;b style=&quot;border-color: var(--border-color);&quot;&gt;(RI - 1)&lt;/b&gt;" style="text;strokeColor=none;align=center;fillColor=none;html=1;verticalAlign=middle;whiteSpace=wrap;rounded=0;fontColor=#1A1A1A;" parent="1" vertex="1">
          <mxGeometry x="626" y="137" width="60" height="30" as="geometry" />
        </mxCell>
        <mxCell id="fjhzI5hMC6Ckn3JjvEL3-52" value="Produto" style="rounded=1;arcSize=10;whiteSpace=wrap;html=1;align=center;labelBackgroundColor=none;fillColor=#09555B;strokeColor=#BAC8D3;fontColor=#EEEEEE;" parent="1" vertex="1">
          <mxGeometry x="651" y="680" width="100" height="40" as="geometry" />
        </mxCell>
        <mxCell id="fjhzI5hMC6Ckn3JjvEL3-53" value="SKU" style="ellipse;whiteSpace=wrap;html=1;align=center;fontStyle=4;labelBackgroundColor=none;fillColor=#76BCC1;strokeColor=#36393d;" parent="1" vertex="1">
          <mxGeometry x="468" y="735" width="100" height="40" as="geometry" />
        </mxCell>
        <mxCell id="fjhzI5hMC6Ckn3JjvEL3-56" value="Nome" style="ellipse;whiteSpace=wrap;html=1;align=center;labelBackgroundColor=none;fillColor=#76BCC1;strokeColor=#36393d;shadow=0;" parent="1" vertex="1">
          <mxGeometry x="474" y="674" width="100" height="40" as="geometry" />
        </mxCell>
        <mxCell id="fjhzI5hMC6Ckn3JjvEL3-59" value="Descrição" style="ellipse;whiteSpace=wrap;html=1;align=center;strokeColor=#36393d;fillColor=#76BCC1;" parent="1" vertex="1">
          <mxGeometry x="571" y="764" width="100" height="40" as="geometry" />
        </mxCell>
        <mxCell id="fjhzI5hMC6Ckn3JjvEL3-60" value="Preço" style="ellipse;whiteSpace=wrap;html=1;align=center;strokeColor=#36393d;fillColor=#76BCC1;" parent="1" vertex="1">
          <mxGeometry x="515" y="621.5" width="100" height="40" as="geometry" />
        </mxCell>
        <mxCell id="fjhzI5hMC6Ckn3JjvEL3-69" value="" style="strokeWidth=2;html=1;shape=mxgraph.flowchart.extract_or_measurement;whiteSpace=wrap;strokeColor=#36393d;fillColor=#cce5ff;direction=west;" parent="1" vertex="1">
          <mxGeometry x="1.0699999999999932" y="541" width="47.93" height="30" as="geometry" />
        </mxCell>
        <mxCell id="fjhzI5hMC6Ckn3JjvEL3-71" value="Venda" style="rounded=1;arcSize=10;whiteSpace=wrap;html=1;align=center;labelBackgroundColor=none;fillColor=#09555B;strokeColor=#BAC8D3;fontColor=#EEEEEE;" parent="1" vertex="1">
          <mxGeometry x="-25" y="439" width="100" height="40" as="geometry" />
        </mxCell>
        <mxCell id="fjhzI5hMC6Ckn3JjvEL3-72" value="Data de pagamento" style="ellipse;whiteSpace=wrap;html=1;align=center;fontStyle=0;labelBackgroundColor=none;fillColor=#76BCC1;strokeColor=#36393d;" parent="1" vertex="1">
          <mxGeometry x="44.96000000000001" y="391" width="100" height="40" as="geometry" />
        </mxCell>
        <mxCell id="fjhzI5hMC6Ckn3JjvEL3-76" value="Fornecedor" style="rounded=1;arcSize=10;whiteSpace=wrap;html=1;align=center;labelBackgroundColor=none;fillColor=#09555B;strokeColor=#BAC8D3;fontColor=#EEEEEE;" parent="1" vertex="1">
          <mxGeometry x="1240" y="489" width="100" height="40" as="geometry" />
        </mxCell>
        <mxCell id="fjhzI5hMC6Ckn3JjvEL3-78" value="Nome" style="ellipse;whiteSpace=wrap;html=1;align=center;labelBackgroundColor=none;fillColor=#76BCC1;strokeColor=#36393d;shadow=0;" parent="1" vertex="1">
          <mxGeometry x="1350" y="410" width="100" height="40" as="geometry" />
        </mxCell>
        <mxCell id="fjhzI5hMC6Ckn3JjvEL3-84" value="Endereço" style="ellipse;whiteSpace=wrap;html=1;align=center;strokeColor=#36393d;fillColor=#76BCC1;" parent="1" vertex="1">
          <mxGeometry x="1240" y="370" width="100" height="40" as="geometry" />
        </mxCell>
        <mxCell id="fjhzI5hMC6Ckn3JjvEL3-87" value="Identificação fiscal" style="ellipse;whiteSpace=wrap;html=1;align=center;fontStyle=4;strokeColor=#36393d;fillColor=#76BCC1;" parent="1" vertex="1">
          <mxGeometry x="1130" y="410" width="100" height="40" as="geometry" />
        </mxCell>
        <mxCell id="HBzrt0_QNmEuBICVA7XL-15" style="edgeStyle=orthogonalEdgeStyle;shape=link;rounded=0;orthogonalLoop=1;jettySize=auto;html=1;exitX=1;exitY=0.5;exitDx=0;exitDy=0;entryX=0;entryY=0.5;entryDx=0;entryDy=0;" parent="1" source="fjhzI5hMC6Ckn3JjvEL3-134" target="HBzrt0_QNmEuBICVA7XL-12" edge="1">
          <mxGeometry relative="1" as="geometry" />
        </mxCell>
        <mxCell id="fjhzI5hMC6Ckn3JjvEL3-134" value="Empregado" style="rounded=1;arcSize=10;whiteSpace=wrap;html=1;align=center;labelBackgroundColor=none;fillColor=#09555B;strokeColor=#BAC8D3;fontColor=#EEEEEE;" parent="1" vertex="1">
          <mxGeometry x="300" y="349" width="100" height="40" as="geometry" />
        </mxCell>
        <mxCell id="fjhzI5hMC6Ckn3JjvEL3-135" value="NIF" style="ellipse;whiteSpace=wrap;html=1;align=center;fontStyle=4;labelBackgroundColor=none;fillColor=#76BCC1;strokeColor=#36393d;" parent="1" vertex="1">
          <mxGeometry x="301" y="239" width="100" height="40" as="geometry" />
        </mxCell>
        <mxCell id="fjhzI5hMC6Ckn3JjvEL3-137" value="Data de nascimento" style="ellipse;whiteSpace=wrap;html=1;align=center;labelBackgroundColor=none;fillColor=#76BCC1;strokeColor=#36393d;" parent="1" vertex="1">
          <mxGeometry x="160" y="333.5" width="100" height="40" as="geometry" />
        </mxCell>
        <mxCell id="fjhzI5hMC6Ckn3JjvEL3-138" value="Nome" style="ellipse;whiteSpace=wrap;html=1;align=center;labelBackgroundColor=none;fillColor=#76BCC1;strokeColor=#36393d;" parent="1" vertex="1">
          <mxGeometry x="382" y="293.5" width="100" height="40" as="geometry" />
        </mxCell>
        <mxCell id="fjhzI5hMC6Ckn3JjvEL3-149" value="Número de segurança social" style="ellipse;whiteSpace=wrap;html=1;align=center;strokeColor=#36393d;fillColor=#76BCC1;" parent="1" vertex="1">
          <mxGeometry x="191" y="265.5" width="100" height="40" as="geometry" />
        </mxCell>
        <mxCell id="fjhzI5hMC6Ckn3JjvEL3-152" value="Departamento" style="rounded=1;arcSize=10;whiteSpace=wrap;html=1;align=center;labelBackgroundColor=none;fillColor=#09555B;strokeColor=#BAC8D3;fontColor=#EEEEEE;" parent="1" vertex="1">
          <mxGeometry x="600" y="437" width="100" height="40" as="geometry" />
        </mxCell>
        <mxCell id="fjhzI5hMC6Ckn3JjvEL3-155" style="edgeStyle=orthogonalEdgeStyle;shape=link;rounded=0;orthogonalLoop=1;jettySize=auto;html=1;exitX=0.5;exitY=1;exitDx=0;exitDy=0;strokeColor=#000000;fontColor=#1A1A1A;" parent="1" source="fjhzI5hMC6Ckn3JjvEL3-156" target="fjhzI5hMC6Ckn3JjvEL3-160" edge="1">
          <mxGeometry relative="1" as="geometry">
            <mxPoint x="887.4285714285714" y="380" as="targetPoint" />
          </mxGeometry>
        </mxCell>
        <mxCell id="fjhzI5hMC6Ckn3JjvEL3-156" value="Local de trabalho" style="rounded=1;arcSize=10;whiteSpace=wrap;html=1;align=center;labelBackgroundColor=none;fillColor=#09555B;strokeColor=#BAC8D3;fontColor=#EEEEEE;" parent="1" vertex="1">
          <mxGeometry x="861" y="239" width="100" height="40" as="geometry" />
        </mxCell>
        <mxCell id="fjhzI5hMC6Ckn3JjvEL3-157" value="Localização" style="ellipse;whiteSpace=wrap;html=1;align=center;fontStyle=4;labelBackgroundColor=none;fillColor=#76BCC1;strokeColor=#36393d;" parent="1" vertex="1">
          <mxGeometry x="931" y="158" width="100" height="40" as="geometry" />
        </mxCell>
        <mxCell id="fjhzI5hMC6Ckn3JjvEL3-159" value="Endereço" style="ellipse;whiteSpace=wrap;html=1;align=center;labelBackgroundColor=none;fillColor=#76bcc1;strokeColor=#36393d;shadow=0;gradientColor=none;" parent="1" vertex="1">
          <mxGeometry x="791" y="158" width="100" height="40" as="geometry" />
        </mxCell>
        <mxCell id="fjhzI5hMC6Ckn3JjvEL3-160" value="" style="strokeWidth=2;html=1;shape=mxgraph.flowchart.extract_or_measurement;whiteSpace=wrap;strokeColor=#36393d;fillColor=#cce5ff;" parent="1" vertex="1">
          <mxGeometry x="887.04" y="318" width="47.93" height="30" as="geometry" />
        </mxCell>
        <mxCell id="fjhzI5hMC6Ckn3JjvEL3-161" value="Escritório" style="rounded=1;arcSize=10;whiteSpace=wrap;html=1;align=center;labelBackgroundColor=none;fillColor=#09555B;strokeColor=#BAC8D3;fontColor=#EEEEEE;" parent="1" vertex="1">
          <mxGeometry x="950" y="399" width="100" height="40" as="geometry" />
        </mxCell>
        <mxCell id="fjhzI5hMC6Ckn3JjvEL3-163" value="" style="endArrow=none;html=1;rounded=0;strokeColor=#000000;fontColor=#1A1A1A;exitX=0.5;exitY=1;exitDx=0;exitDy=0;exitPerimeter=0;entryX=0.5;entryY=0;entryDx=0;entryDy=0;" parent="1" source="fjhzI5hMC6Ckn3JjvEL3-160" target="fjhzI5hMC6Ckn3JjvEL3-161" edge="1">
          <mxGeometry relative="1" as="geometry">
            <mxPoint x="837" y="360" as="sourcePoint" />
            <mxPoint x="997" y="360" as="targetPoint" />
            <Array as="points">
              <mxPoint x="911" y="368" />
              <mxPoint x="1000" y="368" />
            </Array>
          </mxGeometry>
        </mxCell>
        <mxCell id="fjhzI5hMC6Ckn3JjvEL3-172" value="Armazém" style="rounded=1;arcSize=10;whiteSpace=wrap;html=1;align=center;labelBackgroundColor=none;fillColor=#09555B;strokeColor=#BAC8D3;fontColor=#EEEEEE;" parent="1" vertex="1">
          <mxGeometry x="770" y="399" width="100" height="40" as="geometry" />
        </mxCell>
        <mxCell id="fjhzI5hMC6Ckn3JjvEL3-173" value="" style="endArrow=none;html=1;rounded=0;strokeColor=#000000;fontColor=#1A1A1A;exitX=0.5;exitY=1;exitDx=0;exitDy=0;exitPerimeter=0;entryX=0.5;entryY=0;entryDx=0;entryDy=0;" parent="1" source="fjhzI5hMC6Ckn3JjvEL3-160" target="fjhzI5hMC6Ckn3JjvEL3-172" edge="1">
          <mxGeometry relative="1" as="geometry">
            <mxPoint x="911" y="318" as="sourcePoint" />
            <mxPoint x="1071" y="318" as="targetPoint" />
            <Array as="points">
              <mxPoint x="911" y="368" />
              <mxPoint x="820" y="368" />
            </Array>
          </mxGeometry>
        </mxCell>
        <mxCell id="fsZiaamCpNhLpa2996Bd-9" value="&lt;font&gt;tem &amp;gt;&lt;/font&gt;" style="shape=rhombus;perimeter=rhombusPerimeter;whiteSpace=wrap;html=1;align=center;fillColor=#CCE5FF;fontColor=#000000;" parent="1" vertex="1">
          <mxGeometry x="360" y="30" width="80" height="60" as="geometry" />
        </mxCell>
        <mxCell id="fsZiaamCpNhLpa2996Bd-11" style="edgeStyle=orthogonalEdgeStyle;shape=link;rounded=0;orthogonalLoop=1;jettySize=auto;html=1;exitX=0;exitY=0.5;exitDx=0;exitDy=0;strokeColor=#000000;fontColor=#1A1A1A;entryX=1;entryY=0.5;entryDx=0;entryDy=0;" parent="1" source="fsZiaamCpNhLpa2996Bd-9" target="ulnthqZ8hp1moQ3BsTgQ-2" edge="1">
          <mxGeometry relative="1" as="geometry">
            <mxPoint x="249.54999999999998" y="80" as="targetPoint" />
            <mxPoint x="249.54999999999998" y="40" as="sourcePoint" />
            <Array as="points" />
          </mxGeometry>
        </mxCell>
        <mxCell id="fsZiaamCpNhLpa2996Bd-13" value="" style="edgeStyle=orthogonalEdgeStyle;rounded=0;orthogonalLoop=1;jettySize=auto;html=1;strokeColor=#000000;exitX=0;exitY=0.25;exitDx=0;exitDy=0;entryX=1;entryY=0.5;entryDx=0;entryDy=0;" parent="1" source="fjhzI5hMC6Ckn3JjvEL3-26" target="fsZiaamCpNhLpa2996Bd-9" edge="1">
          <mxGeometry relative="1" as="geometry">
            <Array as="points">
              <mxPoint x="480" y="50" />
              <mxPoint x="480" y="60" />
            </Array>
            <mxPoint x="530" y="86" as="sourcePoint" />
            <mxPoint x="390" y="216" as="targetPoint" />
          </mxGeometry>
        </mxCell>
        <mxCell id="fsZiaamCpNhLpa2996Bd-14" value="&lt;b&gt;(RI - 2)&lt;/b&gt;" style="text;strokeColor=none;align=center;fillColor=none;html=1;verticalAlign=middle;whiteSpace=wrap;rounded=0;" parent="1" vertex="1">
          <mxGeometry x="371" y="8" width="60" height="30" as="geometry" />
        </mxCell>
        <mxCell id="fsZiaamCpNhLpa2996Bd-16" value="&lt;font&gt;é substituto&lt;br&gt;de &amp;gt;&lt;/font&gt;" style="shape=rhombus;perimeter=rhombusPerimeter;whiteSpace=wrap;html=1;align=center;fillColor=#CCE5FF;fontColor=#000000;" parent="1" vertex="1">
          <mxGeometry x="615" y="160" width="90" height="80" as="geometry" />
        </mxCell>
        <mxCell id="fsZiaamCpNhLpa2996Bd-22" value="&lt;font&gt;efetua v&lt;/font&gt;" style="shape=rhombus;perimeter=rhombusPerimeter;whiteSpace=wrap;html=1;align=center;fillColor=#CCE5FF;fontColor=#000000;" parent="1" vertex="1">
          <mxGeometry x="-119" y="179" width="80" height="60" as="geometry" />
        </mxCell>
        <mxCell id="fsZiaamCpNhLpa2996Bd-30" value="" style="endArrow=none;html=1;rounded=0;entryX=0;entryY=0.5;entryDx=0;entryDy=0;exitX=0.5;exitY=0;exitDx=0;exitDy=0;" parent="1" source="fsZiaamCpNhLpa2996Bd-22" target="ulnthqZ8hp1moQ3BsTgQ-2" edge="1">
          <mxGeometry relative="1" as="geometry">
            <mxPoint x="-90" y="109" as="sourcePoint" />
            <mxPoint x="70" y="109" as="targetPoint" />
            <Array as="points">
              <mxPoint x="-79" y="60" />
              <mxPoint y="60" />
            </Array>
          </mxGeometry>
        </mxCell>
        <mxCell id="fsZiaamCpNhLpa2996Bd-35" style="edgeStyle=orthogonalEdgeStyle;shape=link;rounded=0;orthogonalLoop=1;jettySize=auto;html=1;exitX=0;exitY=0.5;exitDx=0;exitDy=0;strokeColor=#000000;fontColor=#1A1A1A;entryX=1;entryY=0.5;entryDx=0;entryDy=0;" parent="1" source="fsZiaamCpNhLpa2996Bd-36" target="fjhzI5hMC6Ckn3JjvEL3-13" edge="1">
          <mxGeometry relative="1" as="geometry">
            <mxPoint x="270" y="420.57" as="targetPoint" />
            <mxPoint x="480" y="420.57" as="sourcePoint" />
            <Array as="points" />
          </mxGeometry>
        </mxCell>
        <mxCell id="fsZiaamCpNhLpa2996Bd-36" value="&lt;font&gt;constituída&lt;br&gt;por &amp;gt;&lt;/font&gt;" style="shape=rhombus;perimeter=rhombusPerimeter;whiteSpace=wrap;html=1;align=center;fillColor=#CCE5FF;fontColor=#000000;" parent="1" vertex="1">
          <mxGeometry x="278" y="610.5" width="85" height="60" as="geometry" />
        </mxCell>
        <mxCell id="fsZiaamCpNhLpa2996Bd-37" value="" style="endArrow=none;html=1;rounded=0;exitX=1;exitY=0.5;exitDx=0;exitDy=0;entryX=0.5;entryY=0;entryDx=0;entryDy=0;" parent="1" source="fsZiaamCpNhLpa2996Bd-36" target="fjhzI5hMC6Ckn3JjvEL3-52" edge="1">
          <mxGeometry relative="1" as="geometry">
            <mxPoint x="350" y="276.7" as="sourcePoint" />
            <mxPoint x="510" y="276.7" as="targetPoint" />
            <Array as="points">
              <mxPoint x="400" y="640" />
              <mxPoint x="400" y="610" />
              <mxPoint x="520" y="610" />
              <mxPoint x="600" y="610" />
              <mxPoint x="660" y="610" />
              <mxPoint x="701" y="610" />
            </Array>
          </mxGeometry>
        </mxCell>
        <mxCell id="fsZiaamCpNhLpa2996Bd-38" value="" style="endArrow=none;html=1;rounded=0;entryX=0.5;entryY=1;entryDx=0;entryDy=0;exitX=0.5;exitY=1;exitDx=0;exitDy=0;" parent="1" source="fsZiaamCpNhLpa2996Bd-36" target="fsZiaamCpNhLpa2996Bd-39" edge="1">
          <mxGeometry relative="1" as="geometry">
            <mxPoint x="290" y="720" as="sourcePoint" />
            <mxPoint x="514.7499999999995" y="310" as="targetPoint" />
          </mxGeometry>
        </mxCell>
        <mxCell id="fsZiaamCpNhLpa2996Bd-39" value="Quantidade de&amp;nbsp;&lt;br&gt;produto encomendado" style="ellipse;whiteSpace=wrap;html=1;align=center;labelBackgroundColor=none;fillColor=#76BCC1;strokeColor=#36393d;shadow=0;" parent="1" vertex="1">
          <mxGeometry x="260" y="749" width="120.5" height="60" as="geometry" />
        </mxCell>
        <mxCell id="fsZiaamCpNhLpa2996Bd-45" value="&lt;font&gt;registada&lt;br&gt;com &amp;gt;&lt;/font&gt;" style="shape=rhombus;perimeter=rhombusPerimeter;whiteSpace=wrap;html=1;align=center;fillColor=#CCE5FF;fontColor=#000000;" parent="1" vertex="1">
          <mxGeometry x="401" y="110" width="80" height="60" as="geometry" />
        </mxCell>
        <mxCell id="fsZiaamCpNhLpa2996Bd-47" value="" style="endArrow=none;html=1;rounded=0;exitX=1;exitY=0.5;exitDx=0;exitDy=0;entryX=0;entryY=0.5;entryDx=0;entryDy=0;" parent="1" source="fsZiaamCpNhLpa2996Bd-45" target="fjhzI5hMC6Ckn3JjvEL3-26" edge="1">
          <mxGeometry relative="1" as="geometry">
            <mxPoint x="360" y="110" as="sourcePoint" />
            <mxPoint x="520" y="110" as="targetPoint" />
            <Array as="points">
              <mxPoint x="500" y="140" />
              <mxPoint x="500" y="60" />
            </Array>
          </mxGeometry>
        </mxCell>
        <mxCell id="fsZiaamCpNhLpa2996Bd-49" value="&lt;b&gt;(RI - 3)&lt;/b&gt;" style="text;strokeColor=none;align=center;fillColor=none;html=1;verticalAlign=middle;whiteSpace=wrap;rounded=0;" parent="1" vertex="1">
          <mxGeometry x="408" y="160" width="60" height="30" as="geometry" />
        </mxCell>
        <mxCell id="VXz65jd6t61WfwNRBwZR-2" value="" style="endArrow=none;html=1;rounded=0;exitX=1;exitY=0.5;exitDx=0;exitDy=0;entryX=0;entryY=0;entryDx=0;entryDy=0;" parent="1" source="fjhzI5hMC6Ckn3JjvEL3-5" target="ulnthqZ8hp1moQ3BsTgQ-2" edge="1">
          <mxGeometry relative="1" as="geometry">
            <mxPoint x="10" y="100" as="sourcePoint" />
            <mxPoint x="170" y="100" as="targetPoint" />
          </mxGeometry>
        </mxCell>
        <mxCell id="VXz65jd6t61WfwNRBwZR-3" value="" style="endArrow=none;html=1;rounded=0;exitX=1;exitY=1;exitDx=0;exitDy=0;entryX=0.25;entryY=0;entryDx=0;entryDy=0;" parent="1" source="HBzrt0_QNmEuBICVA7XL-3" target="ulnthqZ8hp1moQ3BsTgQ-2" edge="1">
          <mxGeometry relative="1" as="geometry">
            <mxPoint x="25.232791324848677" y="-44.80901460526934" as="sourcePoint" />
            <mxPoint x="60" y="50" as="targetPoint" />
          </mxGeometry>
        </mxCell>
        <mxCell id="VXz65jd6t61WfwNRBwZR-4" value="" style="endArrow=none;html=1;rounded=0;exitX=0.5;exitY=1;exitDx=0;exitDy=0;entryX=0.5;entryY=0;entryDx=0;entryDy=0;" parent="1" source="fjhzI5hMC6Ckn3JjvEL3-8" target="ulnthqZ8hp1moQ3BsTgQ-2" edge="1">
          <mxGeometry relative="1" as="geometry">
            <mxPoint x="60" y="-47" as="sourcePoint" />
            <mxPoint x="135" y="38" as="targetPoint" />
          </mxGeometry>
        </mxCell>
        <mxCell id="VXz65jd6t61WfwNRBwZR-5" value="" style="endArrow=none;html=1;rounded=0;exitX=0;exitY=1;exitDx=0;exitDy=0;entryX=0.75;entryY=0;entryDx=0;entryDy=0;" parent="1" source="fjhzI5hMC6Ckn3JjvEL3-2" target="ulnthqZ8hp1moQ3BsTgQ-2" edge="1">
          <mxGeometry relative="1" as="geometry">
            <mxPoint x="119.96" y="-47" as="sourcePoint" />
            <mxPoint x="169.95999999999998" y="38" as="targetPoint" />
          </mxGeometry>
        </mxCell>
        <mxCell id="VXz65jd6t61WfwNRBwZR-6" value="" style="endArrow=none;html=1;rounded=0;exitX=1;exitY=0;exitDx=0;exitDy=0;entryX=0;entryY=0.5;entryDx=0;entryDy=0;" parent="1" source="ulnthqZ8hp1moQ3BsTgQ-2" target="fjhzI5hMC6Ckn3JjvEL3-6" edge="1">
          <mxGeometry relative="1" as="geometry">
            <mxPoint x="160" y="22" as="sourcePoint" />
            <mxPoint x="210" y="41" as="targetPoint" />
          </mxGeometry>
        </mxCell>
        <mxCell id="VXz65jd6t61WfwNRBwZR-7" value="" style="endArrow=none;html=1;rounded=0;exitX=0.5;exitY=1;exitDx=0;exitDy=0;entryX=0.25;entryY=0;entryDx=0;entryDy=0;" parent="1" source="CCsuW4YI19WVbK_dI1q7-1" target="fjhzI5hMC6Ckn3JjvEL3-26" edge="1">
          <mxGeometry relative="1" as="geometry">
            <mxPoint x="592" y="-42" as="sourcePoint" />
            <mxPoint x="550" y="8" as="targetPoint" />
          </mxGeometry>
        </mxCell>
        <mxCell id="VXz65jd6t61WfwNRBwZR-8" value="" style="endArrow=none;html=1;rounded=0;exitX=0.5;exitY=1;exitDx=0;exitDy=0;entryX=0.75;entryY=0;entryDx=0;entryDy=0;" parent="1" source="fjhzI5hMC6Ckn3JjvEL3-27" target="fjhzI5hMC6Ckn3JjvEL3-26" edge="1">
          <mxGeometry relative="1" as="geometry">
            <mxPoint x="649" y="-32" as="sourcePoint" />
            <mxPoint x="696" y="50" as="targetPoint" />
          </mxGeometry>
        </mxCell>
        <mxCell id="VXz65jd6t61WfwNRBwZR-9" value="" style="endArrow=none;html=1;rounded=0;entryX=0.25;entryY=0;entryDx=0;entryDy=0;exitX=0.5;exitY=1;exitDx=0;exitDy=0;" parent="1" source="fjhzI5hMC6Ckn3JjvEL3-60" target="fjhzI5hMC6Ckn3JjvEL3-52" edge="1">
          <mxGeometry relative="1" as="geometry">
            <mxPoint x="511" y="534" as="sourcePoint" />
            <mxPoint x="592.5" y="578" as="targetPoint" />
          </mxGeometry>
        </mxCell>
        <mxCell id="VXz65jd6t61WfwNRBwZR-10" value="" style="endArrow=none;html=1;rounded=0;entryX=0;entryY=0.25;entryDx=0;entryDy=0;exitX=1;exitY=0.5;exitDx=0;exitDy=0;" parent="1" source="fjhzI5hMC6Ckn3JjvEL3-56" target="fjhzI5hMC6Ckn3JjvEL3-52" edge="1">
          <mxGeometry relative="1" as="geometry">
            <mxPoint x="741" y="614.5" as="sourcePoint" />
            <mxPoint x="826" y="693.5" as="targetPoint" />
          </mxGeometry>
        </mxCell>
        <mxCell id="VXz65jd6t61WfwNRBwZR-11" value="" style="endArrow=none;html=1;rounded=0;exitX=1;exitY=0;exitDx=0;exitDy=0;entryX=0;entryY=0.75;entryDx=0;entryDy=0;" parent="1" source="fjhzI5hMC6Ckn3JjvEL3-53" target="fjhzI5hMC6Ckn3JjvEL3-52" edge="1">
          <mxGeometry relative="1" as="geometry">
            <mxPoint x="786" y="598" as="sourcePoint" />
            <mxPoint x="620" y="705" as="targetPoint" />
          </mxGeometry>
        </mxCell>
        <mxCell id="VXz65jd6t61WfwNRBwZR-12" value="" style="endArrow=none;html=1;rounded=0;exitX=1;exitY=0;exitDx=0;exitDy=0;entryX=0.25;entryY=1;entryDx=0;entryDy=0;" parent="1" source="fjhzI5hMC6Ckn3JjvEL3-59" target="fjhzI5hMC6Ckn3JjvEL3-52" edge="1">
          <mxGeometry relative="1" as="geometry">
            <mxPoint x="811" y="664" as="sourcePoint" />
            <mxPoint x="761" y="683" as="targetPoint" />
          </mxGeometry>
        </mxCell>
        <mxCell id="VXz65jd6t61WfwNRBwZR-14" value="" style="endArrow=none;html=1;rounded=0;exitX=0.75;exitY=1;exitDx=0;exitDy=0;entryX=0;entryY=0;entryDx=0;entryDy=0;" parent="1" source="fjhzI5hMC6Ckn3JjvEL3-13" target="fjhzI5hMC6Ckn3JjvEL3-14" edge="1">
          <mxGeometry relative="1" as="geometry">
            <mxPoint x="89.31" y="671.5" as="sourcePoint" />
            <mxPoint x="89.31" y="748.5" as="targetPoint" />
          </mxGeometry>
        </mxCell>
        <mxCell id="VXz65jd6t61WfwNRBwZR-15" value="" style="endArrow=none;html=1;rounded=0;exitX=0.25;exitY=1;exitDx=0;exitDy=0;entryX=1;entryY=0;entryDx=0;entryDy=0;" parent="1" source="fjhzI5hMC6Ckn3JjvEL3-13" target="HBzrt0_QNmEuBICVA7XL-1" edge="1">
          <mxGeometry relative="1" as="geometry">
            <mxPoint x="-10" y="690.5" as="sourcePoint" />
            <mxPoint x="-34.76720867515132" y="704.3090146052691" as="targetPoint" />
          </mxGeometry>
        </mxCell>
        <mxCell id="VXz65jd6t61WfwNRBwZR-16" value="" style="endArrow=none;html=1;rounded=0;exitX=0;exitY=1;exitDx=0;exitDy=0;entryX=0.75;entryY=0;entryDx=0;entryDy=0;" parent="1" source="fjhzI5hMC6Ckn3JjvEL3-138" target="fjhzI5hMC6Ckn3JjvEL3-134" edge="1">
          <mxGeometry relative="1" as="geometry">
            <mxPoint x="590" y="393.5" as="sourcePoint" />
            <mxPoint x="625" y="436.5" as="targetPoint" />
          </mxGeometry>
        </mxCell>
        <mxCell id="VXz65jd6t61WfwNRBwZR-17" value="" style="endArrow=none;html=1;rounded=0;exitX=0.5;exitY=1;exitDx=0;exitDy=0;entryX=0.5;entryY=0;entryDx=0;entryDy=0;" parent="1" source="fjhzI5hMC6Ckn3JjvEL3-135" target="fjhzI5hMC6Ckn3JjvEL3-134" edge="1">
          <mxGeometry relative="1" as="geometry">
            <mxPoint x="423.97" y="323.5" as="sourcePoint" />
            <mxPoint x="373.97" y="342.5" as="targetPoint" />
          </mxGeometry>
        </mxCell>
        <mxCell id="VXz65jd6t61WfwNRBwZR-18" value="" style="endArrow=none;html=1;rounded=0;exitX=1;exitY=1;exitDx=0;exitDy=0;entryX=0.25;entryY=0;entryDx=0;entryDy=0;" parent="1" source="fjhzI5hMC6Ckn3JjvEL3-149" target="fjhzI5hMC6Ckn3JjvEL3-134" edge="1">
          <mxGeometry relative="1" as="geometry">
            <mxPoint x="370" y="273.5" as="sourcePoint" />
            <mxPoint x="320" y="358.5" as="targetPoint" />
          </mxGeometry>
        </mxCell>
        <mxCell id="VXz65jd6t61WfwNRBwZR-19" value="" style="endArrow=none;html=1;rounded=0;exitX=1;exitY=0.5;exitDx=0;exitDy=0;entryX=0;entryY=0.25;entryDx=0;entryDy=0;" parent="1" source="fjhzI5hMC6Ckn3JjvEL3-137" target="fjhzI5hMC6Ckn3JjvEL3-134" edge="1">
          <mxGeometry relative="1" as="geometry">
            <mxPoint x="280" y="350" as="sourcePoint" />
            <mxPoint x="230" y="435" as="targetPoint" />
          </mxGeometry>
        </mxCell>
        <mxCell id="VXz65jd6t61WfwNRBwZR-20" value="" style="endArrow=none;html=1;rounded=0;exitX=0.5;exitY=1;exitDx=0;exitDy=0;entryX=0.75;entryY=0;entryDx=0;entryDy=0;" parent="1" source="fjhzI5hMC6Ckn3JjvEL3-157" target="fjhzI5hMC6Ckn3JjvEL3-156" edge="1">
          <mxGeometry relative="1" as="geometry">
            <mxPoint x="1091" y="215.5" as="sourcePoint" />
            <mxPoint x="1041" y="300.5" as="targetPoint" />
          </mxGeometry>
        </mxCell>
        <mxCell id="VXz65jd6t61WfwNRBwZR-21" value="" style="endArrow=none;html=1;rounded=0;exitX=0.5;exitY=1;exitDx=0;exitDy=0;entryX=0.25;entryY=0;entryDx=0;entryDy=0;" parent="1" source="fjhzI5hMC6Ckn3JjvEL3-159" target="fjhzI5hMC6Ckn3JjvEL3-156" edge="1">
          <mxGeometry relative="1" as="geometry">
            <mxPoint x="799" y="215.5" as="sourcePoint" />
            <mxPoint x="749" y="300.5" as="targetPoint" />
          </mxGeometry>
        </mxCell>
        <mxCell id="VXz65jd6t61WfwNRBwZR-22" value="" style="endArrow=none;html=1;rounded=0;exitX=0.5;exitY=0;exitDx=0;exitDy=0;entryX=0.5;entryY=1;entryDx=0;entryDy=0;" parent="1" source="CCsuW4YI19WVbK_dI1q7-9" target="CCsuW4YI19WVbK_dI1q7-8" edge="1">
          <mxGeometry relative="1" as="geometry">
            <mxPoint x="900" y="759" as="sourcePoint" />
            <mxPoint x="900" y="713" as="targetPoint" />
          </mxGeometry>
        </mxCell>
        <mxCell id="VXz65jd6t61WfwNRBwZR-23" value="" style="endArrow=none;html=1;rounded=0;exitX=1;exitY=1;exitDx=0;exitDy=0;entryX=0.25;entryY=0;entryDx=0;entryDy=0;" parent="1" source="fjhzI5hMC6Ckn3JjvEL3-87" target="fjhzI5hMC6Ckn3JjvEL3-76" edge="1">
          <mxGeometry relative="1" as="geometry">
            <mxPoint x="1280" y="550" as="sourcePoint" />
            <mxPoint x="1280" y="591" as="targetPoint" />
          </mxGeometry>
        </mxCell>
        <mxCell id="VXz65jd6t61WfwNRBwZR-24" value="" style="endArrow=none;html=1;rounded=0;exitX=0.5;exitY=1;exitDx=0;exitDy=0;entryX=0.5;entryY=0;entryDx=0;entryDy=0;" parent="1" source="fjhzI5hMC6Ckn3JjvEL3-84" target="fjhzI5hMC6Ckn3JjvEL3-76" edge="1">
          <mxGeometry relative="1" as="geometry">
            <mxPoint x="1310" y="549" as="sourcePoint" />
            <mxPoint x="1310" y="590" as="targetPoint" />
          </mxGeometry>
        </mxCell>
        <mxCell id="VXz65jd6t61WfwNRBwZR-25" value="" style="endArrow=none;html=1;rounded=0;exitX=0;exitY=1;exitDx=0;exitDy=0;entryX=0.75;entryY=0;entryDx=0;entryDy=0;" parent="1" source="fjhzI5hMC6Ckn3JjvEL3-78" target="fjhzI5hMC6Ckn3JjvEL3-76" edge="1">
          <mxGeometry relative="1" as="geometry">
            <mxPoint x="1360" y="559" as="sourcePoint" />
            <mxPoint x="1370" y="490" as="targetPoint" />
          </mxGeometry>
        </mxCell>
        <mxCell id="9rSobXGpRNCFVjJ1lTww-1" value="" style="endArrow=none;html=1;rounded=0;exitX=0.75;exitY=0;exitDx=0;exitDy=0;entryX=0;entryY=1;entryDx=0;entryDy=0;" parent="1" source="fjhzI5hMC6Ckn3JjvEL3-71" target="fjhzI5hMC6Ckn3JjvEL3-72" edge="1">
          <mxGeometry relative="1" as="geometry">
            <mxPoint x="352.5" y="242" as="sourcePoint" />
            <mxPoint x="30" y="380" as="targetPoint" />
          </mxGeometry>
        </mxCell>
        <mxCell id="9rSobXGpRNCFVjJ1lTww-3" value="" style="endArrow=none;dashed=1;html=1;rounded=0;" parent="1" edge="1">
          <mxGeometry width="50" height="50" relative="1" as="geometry">
            <mxPoint x="960" y="840" as="sourcePoint" />
            <mxPoint x="960" y="840" as="targetPoint" />
            <Array as="points">
              <mxPoint x="960" y="520" />
              <mxPoint x="920" y="520" />
              <mxPoint x="920" y="380" />
              <mxPoint x="760" y="380" />
              <mxPoint x="760" y="560" />
              <mxPoint x="440" y="560" />
              <mxPoint x="440" y="840" />
              <mxPoint x="440" y="880" />
              <mxPoint x="700" y="880" />
              <mxPoint x="960" y="880" />
            </Array>
          </mxGeometry>
        </mxCell>
        <mxCell id="9rSobXGpRNCFVjJ1lTww-4" value="&lt;font&gt;^&lt;br&gt;distribuido&amp;nbsp;&lt;br&gt;em&amp;nbsp;&lt;br&gt;&lt;/font&gt;" style="shape=rhombus;perimeter=rhombusPerimeter;whiteSpace=wrap;html=1;align=center;fillColor=#CCE5FF;fontColor=#000000;" parent="1" vertex="1">
          <mxGeometry x="777" y="540" width="85" height="60" as="geometry" />
        </mxCell>
        <mxCell id="9rSobXGpRNCFVjJ1lTww-5" value="" style="endArrow=none;html=1;rounded=0;shape=link;entryX=0.5;entryY=1;entryDx=0;entryDy=0;exitX=1;exitY=0.5;exitDx=0;exitDy=0;" parent="1" source="u7sMjZu1mPLl-0yn21bu-1" target="fjhzI5hMC6Ckn3JjvEL3-76" edge="1">
          <mxGeometry relative="1" as="geometry">
            <mxPoint x="1200" y="601" as="sourcePoint" />
            <mxPoint x="1350" y="613.7" as="targetPoint" />
            <Array as="points">
              <mxPoint x="1290" y="600" />
            </Array>
          </mxGeometry>
        </mxCell>
        <mxCell id="9rSobXGpRNCFVjJ1lTww-13" value="" style="endArrow=none;html=1;rounded=0;shape=link;entryX=1;entryY=0.5;entryDx=0;entryDy=0;exitX=0.5;exitY=0;exitDx=0;exitDy=0;" parent="1" source="CCsuW4YI19WVbK_dI1q7-8" target="9rSobXGpRNCFVjJ1lTww-4" edge="1">
          <mxGeometry relative="1" as="geometry">
            <mxPoint x="900" y="673" as="sourcePoint" />
            <mxPoint x="917" y="565" as="targetPoint" />
            <Array as="points">
              <mxPoint x="900" y="570" />
            </Array>
          </mxGeometry>
        </mxCell>
        <mxCell id="9rSobXGpRNCFVjJ1lTww-15" value="" style="endArrow=none;html=1;rounded=0;exitX=0.75;exitY=0;exitDx=0;exitDy=0;entryX=0.5;entryY=1;entryDx=0;entryDy=0;" parent="1" source="fjhzI5hMC6Ckn3JjvEL3-52" target="9rSobXGpRNCFVjJ1lTww-4" edge="1">
          <mxGeometry relative="1" as="geometry">
            <mxPoint x="700" y="580" as="sourcePoint" />
            <mxPoint x="860" y="580" as="targetPoint" />
            <Array as="points">
              <mxPoint x="726" y="630" />
              <mxPoint x="820" y="630" />
            </Array>
          </mxGeometry>
        </mxCell>
        <mxCell id="9rSobXGpRNCFVjJ1lTww-16" value="" style="endArrow=none;html=1;rounded=0;exitX=0.5;exitY=1;exitDx=0;exitDy=0;entryX=0.5;entryY=0;entryDx=0;entryDy=0;" parent="1" source="fjhzI5hMC6Ckn3JjvEL3-172" target="9rSobXGpRNCFVjJ1lTww-4" edge="1">
          <mxGeometry relative="1" as="geometry">
            <mxPoint x="670" y="620" as="sourcePoint" />
            <mxPoint x="830" y="620" as="targetPoint" />
          </mxGeometry>
        </mxCell>
        <mxCell id="9rSobXGpRNCFVjJ1lTww-19" value="&lt;font&gt;&amp;lt; processa&lt;/font&gt;" style="shape=rhombus;perimeter=rhombusPerimeter;whiteSpace=wrap;html=1;align=center;fillColor=#CCE5FF;fontColor=#000000;" parent="1" vertex="1">
          <mxGeometry x="182" y="490" width="70" height="60" as="geometry" />
        </mxCell>
        <mxCell id="9rSobXGpRNCFVjJ1lTww-20" value="" style="endArrow=none;html=1;rounded=0;exitX=1;exitY=0.5;exitDx=0;exitDy=0;entryX=0.5;entryY=1;entryDx=0;entryDy=0;" parent="1" source="9rSobXGpRNCFVjJ1lTww-19" target="fjhzI5hMC6Ckn3JjvEL3-134" edge="1">
          <mxGeometry relative="1" as="geometry">
            <mxPoint x="150" y="570" as="sourcePoint" />
            <mxPoint x="300" y="520" as="targetPoint" />
            <Array as="points">
              <mxPoint x="350" y="520" />
            </Array>
          </mxGeometry>
        </mxCell>
        <mxCell id="9rSobXGpRNCFVjJ1lTww-21" value="" style="endArrow=none;html=1;rounded=0;shape=link;exitX=0.75;exitY=0;exitDx=0;exitDy=0;entryX=0;entryY=0.5;entryDx=0;entryDy=0;" parent="1" source="fjhzI5hMC6Ckn3JjvEL3-13" target="9rSobXGpRNCFVjJ1lTww-19" edge="1">
          <mxGeometry relative="1" as="geometry">
            <mxPoint x="140" y="520" as="sourcePoint" />
            <mxPoint x="300" y="520" as="targetPoint" />
            <Array as="points">
              <mxPoint x="75" y="520" />
              <mxPoint x="160" y="520" />
            </Array>
          </mxGeometry>
        </mxCell>
        <mxCell id="9rSobXGpRNCFVjJ1lTww-25" value="" style="edgeStyle=orthogonalEdgeStyle;shape=link;rounded=0;orthogonalLoop=1;jettySize=auto;html=1;exitX=1;exitY=1;exitDx=0;exitDy=0;entryX=0;entryY=0.5;entryDx=0;entryDy=0;" parent="1" source="9rSobXGpRNCFVjJ1lTww-22" target="fjhzI5hMC6Ckn3JjvEL3-152" edge="1">
          <mxGeometry relative="1" as="geometry">
            <Array as="points">
              <mxPoint x="585" y="457" />
            </Array>
          </mxGeometry>
        </mxCell>
        <mxCell id="9rSobXGpRNCFVjJ1lTww-22" value="&lt;font&gt;trabalha&lt;br&gt;em &amp;gt;&lt;br&gt;&lt;/font&gt;" style="shape=rhombus;perimeter=rhombusPerimeter;whiteSpace=wrap;html=1;align=center;fillColor=#CCE5FF;fontColor=#000000;" parent="1" vertex="1">
          <mxGeometry x="525" y="339" width="80" height="60" as="geometry" />
        </mxCell>
        <mxCell id="9rSobXGpRNCFVjJ1lTww-27" value="" style="edgeStyle=orthogonalEdgeStyle;shape=link;rounded=0;orthogonalLoop=1;jettySize=auto;html=1;exitX=1;exitY=0;exitDx=0;exitDy=0;entryX=0;entryY=0.5;entryDx=0;entryDy=0;" parent="1" source="9rSobXGpRNCFVjJ1lTww-22" target="fjhzI5hMC6Ckn3JjvEL3-156" edge="1">
          <mxGeometry relative="1" as="geometry">
            <mxPoint x="642" y="251" as="sourcePoint" />
            <mxPoint x="642" y="348" as="targetPoint" />
            <Array as="points">
              <mxPoint x="585" y="259" />
            </Array>
          </mxGeometry>
        </mxCell>
        <mxCell id="9rSobXGpRNCFVjJ1lTww-28" value="&lt;b&gt;(RI - 4)&lt;/b&gt;" style="text;strokeColor=none;align=center;fillColor=none;html=1;verticalAlign=middle;whiteSpace=wrap;rounded=0;" parent="1" vertex="1">
          <mxGeometry x="70" y="-146" width="60" height="30" as="geometry" />
        </mxCell>
        <mxCell id="HBzrt0_QNmEuBICVA7XL-1" value="Data da encomenda" style="ellipse;whiteSpace=wrap;html=1;align=center;labelBackgroundColor=none;fillColor=#76BCC1;strokeColor=#36393d;shadow=0;fontStyle=0" parent="1" vertex="1">
          <mxGeometry x="-80.04" y="698.5" width="100" height="40" as="geometry" />
        </mxCell>
        <mxCell id="HBzrt0_QNmEuBICVA7XL-2" value="" style="endArrow=none;html=1;rounded=0;exitX=0.5;exitY=1;exitDx=0;exitDy=0;entryX=0.5;entryY=1;entryDx=0;entryDy=0;entryPerimeter=0;" parent="1" source="fjhzI5hMC6Ckn3JjvEL3-71" target="fjhzI5hMC6Ckn3JjvEL3-69" edge="1">
          <mxGeometry relative="1" as="geometry">
            <mxPoint x="80" y="451" as="sourcePoint" />
            <mxPoint x="80" y="529" as="targetPoint" />
          </mxGeometry>
        </mxCell>
        <mxCell id="HBzrt0_QNmEuBICVA7XL-3" value="E-mail" style="ellipse;whiteSpace=wrap;html=1;align=center;labelBackgroundColor=none;fillColor=#76BCC1;strokeColor=#36393d;fontStyle=4" parent="1" vertex="1">
          <mxGeometry x="-60" y="-79" width="100" height="40" as="geometry" />
        </mxCell>
        <mxCell id="HBzrt0_QNmEuBICVA7XL-12" value="" style="triangle;whiteSpace=wrap;html=1;fillColor=#000000;" parent="1" vertex="1">
          <mxGeometry x="514" y="363.5" width="10" height="11" as="geometry" />
        </mxCell>
        <mxCell id="HBzrt0_QNmEuBICVA7XL-16" style="edgeStyle=orthogonalEdgeStyle;shape=link;rounded=0;orthogonalLoop=1;jettySize=auto;html=1;exitX=0;exitY=0.5;exitDx=0;exitDy=0;entryX=0;entryY=0.5;entryDx=0;entryDy=0;" parent="1" source="fjhzI5hMC6Ckn3JjvEL3-13" target="HBzrt0_QNmEuBICVA7XL-17" edge="1">
          <mxGeometry relative="1" as="geometry">
            <mxPoint x="-224" y="358" as="sourcePoint" />
            <Array as="points">
              <mxPoint x="-79" y="641" />
            </Array>
          </mxGeometry>
        </mxCell>
        <mxCell id="HBzrt0_QNmEuBICVA7XL-17" value="" style="triangle;whiteSpace=wrap;html=1;fillColor=#000000;direction=north;" parent="1" vertex="1">
          <mxGeometry x="-84.5" y="240" width="11" height="10" as="geometry" />
        </mxCell>
        <mxCell id="HBzrt0_QNmEuBICVA7XL-18" style="edgeStyle=orthogonalEdgeStyle;shape=link;rounded=0;orthogonalLoop=1;jettySize=auto;html=1;exitX=1;exitY=0.5;exitDx=0;exitDy=0;entryX=0;entryY=0.5;entryDx=0;entryDy=0;" parent="1" target="HBzrt0_QNmEuBICVA7XL-19" edge="1">
          <mxGeometry relative="1" as="geometry">
            <mxPoint x="961" y="601" as="sourcePoint" />
          </mxGeometry>
        </mxCell>
        <mxCell id="HBzrt0_QNmEuBICVA7XL-19" value="" style="triangle;whiteSpace=wrap;html=1;fillColor=#000000;" parent="1" vertex="1">
          <mxGeometry x="1127.5" y="595.5" width="10" height="11" as="geometry" />
        </mxCell>
        <mxCell id="HBzrt0_QNmEuBICVA7XL-21" style="edgeStyle=orthogonalEdgeStyle;shape=link;rounded=0;orthogonalLoop=1;jettySize=auto;html=1;exitX=0.5;exitY=0;exitDx=0;exitDy=0;entryX=0;entryY=0.5;entryDx=0;entryDy=0;" parent="1" source="fjhzI5hMC6Ckn3JjvEL3-71" target="HBzrt0_QNmEuBICVA7XL-22" edge="1">
          <mxGeometry relative="1" as="geometry">
            <mxPoint x="276" y="140" as="sourcePoint" />
          </mxGeometry>
        </mxCell>
        <mxCell id="HBzrt0_QNmEuBICVA7XL-22" value="" style="triangle;whiteSpace=wrap;html=1;fillColor=#000000;" parent="1" vertex="1">
          <mxGeometry x="390" y="134.5" width="10" height="11" as="geometry" />
        </mxCell>
        <mxCell id="HBzrt0_QNmEuBICVA7XL-25" value="Método de pagamento pai" style="text;strokeColor=none;align=center;fillColor=none;html=1;verticalAlign=middle;whiteSpace=wrap;rounded=0;fontColor=#1A1A1A;" parent="1" vertex="1">
          <mxGeometry x="697" y="87" width="60" height="30" as="geometry" />
        </mxCell>
        <mxCell id="HBzrt0_QNmEuBICVA7XL-30" style="edgeStyle=orthogonalEdgeStyle;shape=link;rounded=0;orthogonalLoop=1;jettySize=auto;html=1;exitX=1;exitY=0.5;exitDx=0;exitDy=0;entryX=0;entryY=0.5;entryDx=0;entryDy=0;" parent="1" source="fjhzI5hMC6Ckn3JjvEL3-26" target="HBzrt0_QNmEuBICVA7XL-31" edge="1">
          <mxGeometry relative="1" as="geometry">
            <mxPoint x="845" y="-1" as="sourcePoint" />
            <Array as="points">
              <mxPoint x="760" y="60" />
              <mxPoint x="760" y="200" />
            </Array>
          </mxGeometry>
        </mxCell>
        <mxCell id="HBzrt0_QNmEuBICVA7XL-31" value="" style="triangle;whiteSpace=wrap;html=1;fillColor=#000000;direction=west;" parent="1" vertex="1">
          <mxGeometry x="705" y="194.5" width="10" height="11" as="geometry" />
        </mxCell>
        <mxCell id="xiw0PhxNBkUJyH_EJL3o-2" value="" style="edgeStyle=orthogonalEdgeStyle;rounded=0;orthogonalLoop=1;jettySize=auto;html=1;strokeColor=#000000;entryX=0;entryY=0.5;entryDx=0;entryDy=0;" parent="1" target="fsZiaamCpNhLpa2996Bd-16" edge="1">
          <mxGeometry relative="1" as="geometry">
            <Array as="points">
              <mxPoint x="610" y="70" />
              <mxPoint x="570" y="70" />
              <mxPoint x="570" y="200" />
            </Array>
            <mxPoint x="590" y="70" as="sourcePoint" />
            <mxPoint x="439" y="239" as="targetPoint" />
          </mxGeometry>
        </mxCell>
        <mxCell id="CCsuW4YI19WVbK_dI1q7-1" value="Nome" style="ellipse;whiteSpace=wrap;html=1;align=center;labelBackgroundColor=none;fillColor=#76BCC1;strokeColor=#36393d;" parent="1" vertex="1">
          <mxGeometry x="532" y="-82" width="100" height="40" as="geometry" />
        </mxCell>
        <mxCell id="CCsuW4YI19WVbK_dI1q7-3" value="" style="strokeWidth=2;html=1;shape=mxgraph.flowchart.extract_or_measurement;whiteSpace=wrap;strokeColor=#36393d;fillColor=#cce5ff;direction=east;" parent="1" vertex="1">
          <mxGeometry x="700.07" y="760" width="47.93" height="30" as="geometry" />
        </mxCell>
        <mxCell id="CCsuW4YI19WVbK_dI1q7-4" value="Produto com código EAN" style="rounded=1;arcSize=10;whiteSpace=wrap;html=1;align=center;labelBackgroundColor=none;fillColor=#09555B;strokeColor=#BAC8D3;fontColor=#EEEEEE;" parent="1" vertex="1">
          <mxGeometry x="674.03" y="820" width="100" height="40" as="geometry" />
        </mxCell>
        <mxCell id="CCsuW4YI19WVbK_dI1q7-5" value="" style="endArrow=none;html=1;rounded=0;exitX=0.5;exitY=0;exitDx=0;exitDy=0;entryX=0.5;entryY=1;entryDx=0;entryDy=0;entryPerimeter=0;" parent="1" source="CCsuW4YI19WVbK_dI1q7-4" target="CCsuW4YI19WVbK_dI1q7-3" edge="1">
          <mxGeometry relative="1" as="geometry">
            <mxPoint x="820" y="862" as="sourcePoint" />
            <mxPoint x="820" y="940" as="targetPoint" />
          </mxGeometry>
        </mxCell>
        <mxCell id="CCsuW4YI19WVbK_dI1q7-6" value="" style="endArrow=none;html=1;rounded=0;exitX=0.5;exitY=0;exitDx=0;exitDy=0;entryX=0.75;entryY=1;entryDx=0;entryDy=0;exitPerimeter=0;" parent="1" source="CCsuW4YI19WVbK_dI1q7-3" edge="1">
          <mxGeometry relative="1" as="geometry">
            <mxPoint x="730.0350000000001" y="759" as="sourcePoint" />
            <mxPoint x="724" y="720" as="targetPoint" />
            <Array as="points">
              <mxPoint x="724" y="759" />
              <mxPoint x="724" y="750" />
            </Array>
          </mxGeometry>
        </mxCell>
        <mxCell id="CCsuW4YI19WVbK_dI1q7-7" value="" style="endArrow=none;html=1;rounded=0;exitX=0.5;exitY=0;exitDx=0;exitDy=0;entryX=0.25;entryY=0;entryDx=0;entryDy=0;exitPerimeter=0;" parent="1" source="fjhzI5hMC6Ckn3JjvEL3-69" target="fjhzI5hMC6Ckn3JjvEL3-13" edge="1">
          <mxGeometry relative="1" as="geometry">
            <mxPoint x="35" y="489" as="sourcePoint" />
            <mxPoint x="35" y="551" as="targetPoint" />
          </mxGeometry>
        </mxCell>
        <mxCell id="CCsuW4YI19WVbK_dI1q7-8" value="Contrato" style="shape=ext;margin=3;double=1;whiteSpace=wrap;html=1;align=center;fillColor=#09555B;fontColor=#EEEEEE;strokeColor=#EEEEEE;" parent="1" vertex="1">
          <mxGeometry x="850" y="663" width="100" height="40" as="geometry" />
        </mxCell>
        <mxCell id="CCsuW4YI19WVbK_dI1q7-9" value="&lt;span style=&quot;border-bottom: 1px dotted&quot;&gt;Data&lt;/span&gt;" style="ellipse;whiteSpace=wrap;html=1;align=center;fillColor=#76BCC1;strokeColor=#000000;gradientColor=none;" parent="1" vertex="1">
          <mxGeometry x="850" y="730" width="100" height="40" as="geometry" />
        </mxCell>
        <mxCell id="CCsuW4YI19WVbK_dI1q7-13" value="EAN" style="ellipse;whiteSpace=wrap;html=1;align=center;strokeColor=#36393d;fillColor=#76BCC1;" parent="1" vertex="1">
          <mxGeometry x="811.97" y="820" width="100" height="40" as="geometry" />
        </mxCell>
        <mxCell id="CCsuW4YI19WVbK_dI1q7-14" value="" style="endArrow=none;html=1;rounded=0;exitX=1;exitY=0.5;exitDx=0;exitDy=0;entryX=0;entryY=0.5;entryDx=0;entryDy=0;" parent="1" source="CCsuW4YI19WVbK_dI1q7-4" target="CCsuW4YI19WVbK_dI1q7-13" edge="1">
          <mxGeometry relative="1" as="geometry">
            <mxPoint x="665" y="801" as="sourcePoint" />
            <mxPoint x="686" y="730" as="targetPoint" />
          </mxGeometry>
        </mxCell>
        <mxCell id="GpZk7DQizzbWv1iM7tIh-1" value="Nome" style="ellipse;whiteSpace=wrap;html=1;align=center;fontStyle=4;labelBackgroundColor=none;fillColor=#76BCC1;strokeColor=#36393d;" parent="1" vertex="1">
          <mxGeometry x="600.0699999999999" y="500" width="100" height="40" as="geometry" />
        </mxCell>
        <mxCell id="GpZk7DQizzbWv1iM7tIh-2" value="" style="endArrow=none;html=1;rounded=0;exitX=0.5;exitY=0;exitDx=0;exitDy=0;entryX=0.5;entryY=1;entryDx=0;entryDy=0;" parent="1" source="GpZk7DQizzbWv1iM7tIh-1" target="fjhzI5hMC6Ckn3JjvEL3-152" edge="1">
          <mxGeometry relative="1" as="geometry">
            <mxPoint x="627" y="507.5" as="sourcePoint" />
            <mxPoint x="510" y="556.5" as="targetPoint" />
          </mxGeometry>
        </mxCell>
        <mxCell id="u7sMjZu1mPLl-0yn21bu-2" value="" style="endArrow=none;html=1;rounded=0;shape=link;entryX=0.5;entryY=1;entryDx=0;entryDy=0;exitX=1;exitY=0.5;exitDx=0;exitDy=0;" edge="1" parent="1" target="u7sMjZu1mPLl-0yn21bu-1">
          <mxGeometry relative="1" as="geometry">
            <mxPoint x="1200" y="601" as="sourcePoint" />
            <mxPoint x="1290" y="529" as="targetPoint" />
            <Array as="points" />
          </mxGeometry>
        </mxCell>
        <mxCell id="u7sMjZu1mPLl-0yn21bu-1" value="&lt;font&gt;&amp;lt; tem&lt;br&gt;&lt;/font&gt;" style="shape=rhombus;perimeter=rhombusPerimeter;whiteSpace=wrap;html=1;align=center;fillColor=#CCE5FF;fontColor=#000000;" vertex="1" parent="1">
          <mxGeometry x="1137.5" y="571" width="85" height="60" as="geometry" />
        </mxCell>
      </root>
    </mxGraphModel>
  </diagram>
</mxfile>
